<svg width="32" height="32" viewBox="0 0 32 32" fill="none" xmlns="http://www.w3.org/2000/svg">
  <rect width="32" height="32" rx="4" fill="#3B82F6"/>
  <rect x="4" y="4" width="24" height="24" rx="2" fill="white"/>
  <rect x="6" y="6" width="2" height="2" fill="#3B82F6"/>
  <rect x="10" y="6" width="2" height="2" fill="#3B82F6"/>
  <rect x="14" y="6" width="2" height="2" fill="#3B82F6"/>
  <rect x="18" y="6" width="2" height="2" fill="#3B82F6"/>
  <rect x="22" y="6" width="2" height="2" fill="#3B82F6"/>
  <rect x="6" y="10" width="2" height="2" fill="#3B82F6"/>
  <rect x="10" y="10" width="2" height="2" fill="#3B82F6"/>
  <rect x="14" y="10" width="2" height="2" fill="#3B82F6"/>
  <rect x="18" y="10" width="2" height="2" fill="#3B82F6"/>
  <rect x="22" y="10" width="2" height="2" fill="#3B82F6"/>
  <rect x="6" y="14" width="2" height="2" fill="#3B82F6"/>
  <rect x="10" y="14" width="2" height="2" fill="#3B82F6"/>
  <rect x="14" y="14" width="2" height="2" fill="#3B82F6"/>
  <rect x="18" y="14" width="2" height="2" fill="#3B82F6"/>
  <rect x="22" y="14" width="2" height="2" fill="#3B82F6"/>
  <rect x="6" y="18" width="2" height="2" fill="#3B82F6"/>
  <rect x="10" y="18" width="2" height="2" fill="#3B82F6"/>
  <rect x="14" y="18" width="2" height="2" fill="#3B82F6"/>
  <rect x="18" y="18" width="2" height="2" fill="#3B82F6"/>
  <rect x="22" y="18" width="2" height="2" fill="#3B82F6"/>
  <rect x="6" y="22" width="2" height="2" fill="#3B82F6"/>
  <rect x="10" y="22" width="2" height="2" fill="#3B82F6"/>
  <rect x="14" y="22" width="2" height="2" fill="#3B82F6"/>
  <rect x="18" y="22" width="2" height="2" fill="#3B82F6"/>
  <rect x="22" y="22" width="2" height="2" fill="#3B82F6"/>
</svg>